<?xml version="1.0" encoding="iso-8859-1"?>
<!-- Generator: Adobe Illustrator 19.0.0, SVG Export Plug-In . SVG Version: 6.00 Build 0)  -->
<svg version="1.1" id="Layer_1" xmlns="http://www.w3.org/2000/svg" xmlns:xlink="http://www.w3.org/1999/xlink" x="0px" y="0px"
	 viewBox="0 0 512.002 512.002" style="enable-background:new 0 0 512.002 512.002;" xml:space="preserve">
<g>
	<g>
		<g>
			<path d="M460.732,103.425c0.282-2.244-0.358-4.514-1.758-6.298C411.238,36.31,335.36,0.001,256,0.001
				c-141.158,0-256,114.842-256,256s114.842,256,256,256c79.36,0,155.238-36.318,202.974-97.135
				c1.399-1.784,2.031-4.045,1.758-6.298c-0.265-2.244-1.425-4.292-3.209-5.692l-167.467-131.2
				c-3.695-2.901-9.062-2.253-11.972,1.459c-2.91,3.703-2.253,9.071,1.451,11.981l160.614,125.833
				C395.418,463.677,327.228,494.934,256,494.934c-131.755,0-238.933-107.187-238.933-238.933
				C17.067,124.246,124.245,17.068,256,17.068c71.228,0,139.409,31.241,184.149,83.977L250.743,249.277
				c-3.712,2.901-4.369,8.269-1.468,11.981c2.91,3.712,8.277,4.361,11.981,1.459l196.267-153.6
				C459.307,107.726,460.467,105.669,460.732,103.425z"/>
			<path d="M341.333,256.001c0,28.228,22.963,51.2,51.2,51.2c28.228,0,51.2-22.972,51.2-51.2c0-28.237-22.972-51.2-51.2-51.2
				C364.297,204.801,341.333,227.764,341.333,256.001z M426.667,256.001c0,18.816-15.317,34.133-34.133,34.133
				c-18.825,0-34.133-15.317-34.133-34.133c0-18.825,15.309-34.133,34.133-34.133C411.349,221.868,426.667,237.176,426.667,256.001z
				"/>
			<path d="M505.165,289.443c-15.821-3.209-27.298-17.28-27.298-33.442c0-16.171,11.477-30.234,27.298-33.451
				c4.617-0.939,7.603-5.444,6.665-10.061c-0.947-4.617-5.436-7.612-10.061-6.665c-23.74,4.821-40.969,25.924-40.969,50.176
				c0,24.243,17.229,45.346,40.969,50.167c0.572,0.119,1.143,0.171,1.707,0.171c3.977,0,7.535-2.79,8.354-6.835
				C512.768,294.887,509.781,290.382,505.165,289.443z"/>
			<path d="M273.067,93.868c0-14.123-11.486-25.6-25.6-25.6c-14.123,0-25.6,11.477-25.6,25.6c0,14.114,11.477,25.6,25.6,25.6
				C261.581,119.468,273.067,107.982,273.067,93.868z M247.467,102.401c-4.702,0-8.533-3.831-8.533-8.533
				c0-4.71,3.831-8.533,8.533-8.533c4.702,0,8.533,3.823,8.533,8.533C256,98.569,252.169,102.401,247.467,102.401z"/>
		</g>
	</g>
</g>
<g>
</g>
<g>
</g>
<g>
</g>
<g>
</g>
<g>
</g>
<g>
</g>
<g>
</g>
<g>
</g>
<g>
</g>
<g>
</g>
<g>
</g>
<g>
</g>
<g>
</g>
<g>
</g>
<g>
</g>
</svg>
